M48
;FILE_FORMAT=2:4
INCH
;TYPE=PLATED
T01C0.013
T02C0.020
T04C0.038
T05C0.040
T06C0.047
;TYPE=NON_PLATED
T07C0.125
%
T01
X+010500Y+027450
X+014700Y+016350
X+013000Y+015800
X+020750Y+017450
Y+016650
X+020000Y+015850
X+020150Y+018450
X+018650Y+022650
X+020800Y+026000
X+023650Y+015400
Y+018500
X+021450Y+023500
X+023750Y+025300
X+014200Y+015100
X+021850Y+024150
X+022100Y+015000
X+012150Y+014250
X+015000Y+020350
X+017900Y+027700
T02
X+012150Y+017750
T04
X+018650Y+014400
X+010550Y+019250
X+012550
X+013550
X+010550Y+022250
X+012550
X+013550
X+011550Y+019250
X+014550
X+011550Y+022250
X+014550
T05
X+022650Y+014400
X+020650
X+019650
T06
X+010500Y+014650
X+022650Y+027400
X+020650
T07
X+016450Y+016550
X+018750Y+026550
T00
M30
